
<svg width="92" height="92" fill="none" xmlns="http://www.w3.org/2000/svg">
    <g filter="url(#icon__a)">
        <rect x="14" y="8" width="64" height="64" rx="32" fill="#fff"/>
    </g>
    <g filter="url(#icon__b)">
        <path d="M46 40c2.763 0 5-2.237 5-5s-2.237-5-5-5-5 2.237-5 5 2.237 5 5 5Zm0 2.5c-3.337 0-10 1.675-10 5v1.25c0 .688.563 1.25 1.25 1.25h17.5c.688 0 1.25-.563 1.25-1.25V47.5c0-3.325-6.663-5-10-5Z" fill="#4318FF"/>
    </g>
    <defs>
        <filter id="icon__a" x="0" y="0" width="92" height="92" filterUnits="userSpaceOnUse" color-interpolation-filters="sRGB">
            <feFlood flood-opacity="0" result="BackgroundImageFix"/>
            <feColorMatrix in="SourceAlpha" values="0 0 0 0 0 0 0 0 0 0 0 0 0 0 0 0 0 0 127 0" result="hardAlpha"/>
            <feOffset dy="6"/>
            <feGaussianBlur stdDeviation="7"/>
            <feComposite in2="hardAlpha" operator="out"/>
            <feColorMatrix values="0 0 0 0 0.783353 0 0 0 0 0.812582 0 0 0 0 0.841812 0 0 0 0.6 0"/>
            <feBlend in2="BackgroundImageFix" result="effect1_dropShadow_2478_38025"/>
            <feBlend in="SourceGraphic" in2="effect1_dropShadow_2478_38025" result="shape"/>
        </filter>
        <filter id="icon__b" x="18" y="18" width="56" height="56" filterUnits="userSpaceOnUse" color-interpolation-filters="sRGB">
            <feFlood flood-opacity="0" result="BackgroundImageFix"/>
            <feColorMatrix in="SourceAlpha" values="0 0 0 0 0 0 0 0 0 0 0 0 0 0 0 0 0 0 127 0" result="hardAlpha"/>
            <feOffset dy="6"/>
            <feGaussianBlur stdDeviation="9"/>
            <feComposite in2="hardAlpha" operator="out"/>
            <feColorMatrix values="0 0 0 0 0.262745 0 0 0 0 0.0941176 0 0 0 0 1 0 0 0 0.5 0"/>
            <feBlend in2="BackgroundImageFix" result="effect1_dropShadow_2478_38025"/>
            <feBlend in="SourceGraphic" in2="effect1_dropShadow_2478_38025" result="shape"/>
        </filter>
    </defs>
</svg>