<svg xmlns="http://www.w3.org/2000/svg" height="20" viewBox="0 -960 960 960" width="20"><path d="M319.987-140.001q-12.756 0-22.371-9.625-9.615-9.625-9.615-22.375v-82.154H242q-12.75 0-22.374-9.629-9.625-9.628-9.625-22.384 0-12.755 9.625-22.37 9.624-9.616 22.374-9.616h46.001v-88.616H242q-12.75 0-22.374-9.629-9.625-9.628-9.625-22.384 0-12.755 9.625-22.37 9.624-9.616 22.374-9.616h46.001v-311.076q0-15.365 11.394-26.759 11.394-11.395 26.759-11.395h217.231q88.769 0 147.692 58.923 58.922 58.923 58.922 147.692t-58.922 147.691q-58.923 58.923-147.692 58.923H351.999v88.616H478q12.75 0 22.374 9.629 9.625 9.629 9.625 22.384 0 12.756-9.625 22.371-9.624 9.615-22.374 9.615H351.999v82.154q0 12.75-9.628 22.375-9.629 9.625-22.384 9.625Zm32.012-330.768h191.386q61.231 0 101.923-40.692 40.693-40.692 40.693-101.923t-40.693-101.924Q604.616-756 543.385-756H351.999v285.231Z"/></svg>